<?xml version="1.0" standalone="no"?>
<!DOCTYPE svg PUBLIC "-//W3C//DTD SVG 20010904//EN"
 "http://www.w3.org/TR/2001/REC-SVG-20010904/DTD/svg10.dtd">
<svg version="1.0" xmlns="http://www.w3.org/2000/svg"
 width="775.000000pt" height="414.000000pt" viewBox="0 0 775.000000 414.000000"
 preserveAspectRatio="xMidYMid meet">

<g transform="translate(0.000000,414.000000) scale(0.100000,-0.100000)"
fill="#000000" stroke="none">
<path d="M4242 3564 c-22 -15 -22 -16 -22 -315 0 -164 -2 -299 -5 -299 -2 0
-26 14 -52 30 -83 53 -172 75 -298 74 -94 -1 -121 -5 -185 -29 -98 -36 -163
-79 -226 -148 -65 -71 -96 -124 -130 -223 -24 -69 -28 -95 -28 -204 -1 -208
46 -334 173 -461 126 -125 257 -175 436 -166 110 5 186 27 266 77 l49 30 0
-23 c0 -13 10 -33 23 -45 21 -20 34 -22 124 -22 84 0 105 3 124 19 l24 19 -2
832 c-2 770 -3 834 -19 851 -15 16 -32 19 -123 19 -80 0 -112 -4 -129 -16z
m-201 -806 c71 -32 124 -86 158 -157 23 -50 26 -68 25 -161 0 -91 -3 -112 -26
-162 -93 -202 -344 -255 -511 -109 -119 105 -142 335 -48 482 81 128 255 174
402 107z"/>
<path d="M1405 3050 c-107 -22 -193 -68 -278 -149 -71 -67 -117 -141 -153
-246 -26 -73 -28 -92 -28 -220 1 -125 3 -148 27 -213 36 -104 82 -174 159
-247 114 -108 240 -155 414 -155 118 0 222 23 322 72 73 36 172 123 172 152 0
9 -31 48 -68 87 -76 77 -97 84 -144 44 -148 -125 -398 -121 -513 7 -39 43 -81
125 -70 136 4 4 189 9 412 12 l406 5 20 27 c17 23 20 42 20 125 0 171 -49 298
-158 408 -71 72 -176 130 -272 150 -73 16 -203 18 -268 5z m251 -280 c59 -25
114 -78 140 -135 13 -27 24 -56 24 -62 0 -10 -65 -13 -290 -13 -254 0 -290 2
-290 15 0 22 34 87 65 123 77 91 233 123 351 72z"/>
<path d="M2515 3044 c-96 -21 -224 -72 -252 -100 -13 -13 -23 -33 -23 -46 1
-37 63 -151 91 -167 24 -13 32 -12 93 13 133 53 278 71 368 46 76 -21 125 -90
98 -139 -19 -37 -53 -50 -155 -61 -288 -30 -363 -48 -445 -105 -104 -72 -155
-210 -130 -351 28 -166 127 -263 304 -301 123 -26 301 2 386 60 l35 24 12 -28
c16 -39 48 -49 154 -49 82 0 92 2 114 25 l25 24 0 353 c-1 539 -9 588 -117
690 -55 51 -89 70 -172 100 -77 28 -287 34 -386 12z m371 -810 c-36 -105 -121
-165 -246 -172 -62 -4 -86 0 -123 16 -109 48 -117 181 -14 234 23 11 94 27
175 39 75 11 155 26 177 33 l40 13 3 -60 c2 -34 -3 -78 -12 -103z"/>
<path d="M4978 3049 c-114 -15 -175 -44 -245 -114 -53 -54 -65 -73 -84 -135
-53 -175 22 -344 185 -421 34 -16 115 -42 180 -59 175 -45 216 -72 216 -143 0
-65 -73 -117 -165 -117 -59 0 -170 30 -247 67 -61 28 -84 34 -96 27 -26 -16
-91 -116 -98 -150 -18 -92 193 -184 421 -184 282 0 454 123 472 338 10 122
-37 227 -132 292 -61 42 -139 73 -277 111 -62 16 -126 39 -144 49 -73 46 -71
140 4 176 55 26 188 16 272 -21 37 -16 84 -29 110 -29 l45 -1 37 70 c47 89 48
116 6 148 -95 70 -312 115 -460 96z"/>
<path d="M735 3036 c-70 -17 -130 -50 -186 -103 l-48 -45 -3 63 c-4 83 -17 91
-149 87 -154 -5 -139 59 -139 -593 0 -656 -13 -596 129 -603 103 -5 147 7 162
45 5 13 9 161 9 328 0 280 2 309 20 358 44 118 129 175 274 184 115 8 116 9
116 154 0 107 -2 119 -19 129 -26 13 -103 11 -166 -4z"/>
<path d="M6032 2832 c-70 -25 -121 -68 -152 -128 -34 -66 -36 -188 -3 -250 46
-87 117 -135 258 -174 92 -25 169 -64 189 -94 41 -63 24 -137 -40 -177 -33
-20 -52 -24 -125 -24 -79 0 -91 3 -163 38 -71 35 -79 37 -99 24 -13 -8 -31
-30 -42 -50 -17 -33 -18 -37 -2 -60 9 -14 45 -39 79 -56 156 -74 357 -64 472
24 106 81 133 254 58 375 -35 57 -109 103 -222 136 -136 40 -165 53 -196 85
-24 25 -29 39 -29 79 0 86 63 126 184 118 45 -4 83 -14 120 -32 35 -18 62 -25
77 -22 30 8 56 58 52 99 -3 29 -10 36 -72 66 -63 32 -76 35 -180 38 -90 3
-121 0 -164 -15z"/>
<path d="M6630 2822 c-21 -17 -21 -18 -18 -372 l3 -355 29 -62 c63 -138 203
-213 370 -200 147 11 257 82 313 202 l28 60 3 355 c3 354 3 355 -19 372 -26
22 -87 23 -117 2 -22 -15 -22 -15 -22 -347 0 -325 -1 -334 -22 -377 -13 -24
-40 -58 -61 -74 -35 -28 -47 -31 -120 -34 -70 -2 -88 1 -122 20 -21 13 -53 43
-70 66 l-30 44 -3 341 c-2 333 -3 342 -23 360 -27 22 -90 22 -119 -1z"/>
<path d="M5590 1985 c-53 -57 -13 -145 66 -145 73 0 110 84 63 144 -29 37 -95
37 -129 1z"/>
<path d="M2215 1653 c-97 -8 -176 -26 -200 -45 -49 -38 -300 -358 -281 -358 3
0 59 13 125 29 223 55 321 65 606 66 229 0 275 -3 390 -24 332 -59 619 -178
842 -348 46 -35 85 -63 87 -63 2 0 46 31 97 69 247 186 581 313 934 356 109
14 187 16 350 12 220 -5 341 -21 558 -73 60 -14 110 -24 112 -22 6 6 -121 175
-207 276 -88 104 -91 105 -258 123 -134 15 -350 6 -500 -20 -440 -77 -775
-265 -1058 -595 l-33 -38 -16 23 c-9 13 -64 73 -122 132 -273 279 -640 450
-1063 496 -91 10 -271 12 -363 4z"/>
<path d="M2280 1210 c-194 -18 -416 -67 -605 -134 -105 -38 -112 -43 -182
-143 -29 -42 -34 -55 -24 -67 10 -11 89 -15 459 -19 532 -6 689 -19 1057 -88
259 -48 451 -103 684 -197 97 -38 119 -43 140 -34 341 140 558 201 941 262
268 42 556 60 998 61 411 1 396 -5 302 113 -33 41 -68 79 -78 85 -40 21 -327
101 -449 125 -404 78 -811 50 -1188 -81 -146 -51 -367 -163 -467 -238 l-88
-65 -69 54 c-225 173 -554 300 -915 351 -128 19 -393 26 -516 15z"/>
</g>
</svg>
