<svg width="32" height="32" viewBox="0 0 32 32" fill="none" xmlns="http://www.w3.org/2000/svg">
  <!-- Background -->
  <rect width="32" height="32" rx="6" fill="#0F172A"/>

  <!-- Letter R -->
  <path d="M10 8C10 7.44772 10.4477 7 11 7H17C19.7614 7 22 9.23858 22 12C22 13.8638 20.9223 15.4696 19.3336 16.2009L22.7071 21.7071C22.9931 22.1678 22.8535 22.7834 22.3928 23.0694C21.9322 23.3554 21.3166 23.2158 21.0306 22.7552L17.2929 16.4142C17.1978 16.2699 17.0518 16.1667 16.8827 16.1265C16.7137 16.0862 16.5356 16.1119 16.3844 16.1982C16.2619 16.2683 16.1327 16.3238 16 16.3644V24C16 24.5523 15.5523 25 15 25C14.4477 25 14 24.5523 14 24V16H12V24C12 24.5523 11.5523 25 11 25C10.4477 25 10 24.5523 10 24V8ZM12 9V14H17C18.6569 14 20 12.6569 20 11C20 9.34315 18.6569 8 17 8H12V9Z" fill="#60A5FA"/>
</svg>
